<mxfile host="app.diagrams.net" modified="2023-04-07T06:27:28.571Z" agent="Mozilla/5.0 (Windows NT 10.0; Win64; x64) AppleWebKit/537.36 (KHTML, like Gecko) Chrome/110.0.0.0 Whale/3.19.166.16 Safari/537.36" version="21.1.5" etag="m7sOabqtd3u90wvfW9xJ" type="github">
  <diagram name="페이지-1" id="2l9LLr3kUDod5LKjG2k-">
    <mxGraphModel>
      <root>
        <mxCell id="0" />
        <mxCell id="1" parent="0" />
      </root>
    </mxGraphModel>
  </diagram>
</mxfile>
